<svg xmlns="http://www.w3.org/2000/svg" fill="none" viewBox="0 0 49 48"><path d="M11.529 29.76a4.598 4.598 0 0 1-4.587 4.586 4.598 4.598 0 0 1-4.587-4.586 4.598 4.598 0 0 1 4.587-4.587h4.587v4.587zm2.311 0a4.598 4.598 0 0 1 4.587-4.587 4.598 4.598 0 0 1 4.586 4.587v11.484a4.598 4.598 0 0 1-4.587 4.587 4.598 4.598 0 0 1-4.586-4.587V29.759z" fill="#E01E5A"/><path d="M18.427 11.342a4.598 4.598 0 0 1-4.587-4.586 4.598 4.598 0 0 1 4.587-4.587 4.598 4.598 0 0 1 4.586 4.587v4.586h-4.587zm0 2.311a4.598 4.598 0 0 1 4.586 4.587 4.598 4.598 0 0 1-4.586 4.587H6.942a4.598 4.598 0 0 1-4.587-4.587 4.598 4.598 0 0 1 4.587-4.587h11.485z" fill="#36C5F0"/><path d="M36.844 18.24a4.598 4.598 0 0 1 4.587-4.587 4.598 4.598 0 0 1 4.587 4.587 4.598 4.598 0 0 1-4.587 4.587h-4.587V18.24zm-2.311 0a4.598 4.598 0 0 1-4.586 4.587 4.598 4.598 0 0 1-4.587-4.587V6.756a4.598 4.598 0 0 1 4.587-4.587 4.598 4.598 0 0 1 4.586 4.587V18.24z" fill="#2EB67D"/><path d="M29.947 36.657a4.598 4.598 0 0 1 4.586 4.587 4.598 4.598 0 0 1-4.586 4.587 4.598 4.598 0 0 1-4.587-4.587v-4.587h4.587zm0-2.311a4.598 4.598 0 0 1-4.587-4.586 4.598 4.598 0 0 1 4.587-4.587H41.43a4.598 4.598 0 0 1 4.587 4.587 4.598 4.598 0 0 1-4.587 4.586H29.947z" fill="#ECB22E"/></svg>