<svg width="85" height="13" viewBox="0 0 85 13" fill="none" xmlns="http://www.w3.org/2000/svg">
<path d="M16.3334 5.08811C14.0804 15.0221 2.40337 15.2714 0.0217569 4.99632L16.3334 5.08811Z" fill="white"/>
<ellipse cx="3.01064" cy="2.40592" rx="1.00454" ry="1.40592" fill="white"/>
<ellipse cx="13.3069" cy="2.40592" rx="1.00454" ry="1.40592" fill="white"/>
<path d="M28.07 3.81818L25.103 12H23.3984L20.4261 3.81818H22.136L24.2081 10.1143H24.2933L26.3601 3.81818H28.07ZM29.5668 12V3.81818H31.1594V12H29.5668ZM30.3711 2.55575C30.0941 2.55575 29.8562 2.46342 29.6573 2.27876C29.462 2.09055 29.3643 1.86683 29.3643 1.6076C29.3643 1.34482 29.462 1.12109 29.6573 0.936434C29.8562 0.748224 30.0941 0.654119 30.3711 0.654119C30.6481 0.654119 30.8842 0.748224 31.0795 0.936434C31.2784 1.12109 31.3778 1.34482 31.3778 1.6076C31.3778 1.86683 31.2784 2.09055 31.0795 2.27876C30.8842 2.46342 30.6481 2.55575 30.3711 2.55575ZM36.365 12.1598C35.7045 12.1598 35.115 11.9911 34.5965 11.6538C34.0816 11.3129 33.6768 10.8281 33.382 10.1996C33.0908 9.56747 32.9452 8.8093 32.9452 7.92507C32.9452 7.04084 33.0926 6.28445 33.3873 5.65589C33.6856 5.02734 34.094 4.54616 34.6125 4.21236C35.1309 3.87855 35.7187 3.71165 36.3756 3.71165C36.8834 3.71165 37.2918 3.79688 37.6008 3.96733C37.9133 4.13423 38.1547 4.32955 38.3252 4.55327C38.4992 4.77699 38.6341 4.97408 38.73 5.14453H38.8259V1.09091H40.4186V12H38.8632V10.7269H38.73C38.6341 10.9009 38.4957 11.0998 38.3145 11.3235C38.137 11.5472 37.892 11.7425 37.5795 11.9094C37.267 12.0763 36.8621 12.1598 36.365 12.1598ZM36.7165 10.8015C37.1746 10.8015 37.5617 10.6808 37.8778 10.4393C38.1974 10.1942 38.4388 9.85511 38.6022 9.42188C38.7691 8.98864 38.8525 8.48437 38.8525 7.90909C38.8525 7.34091 38.7709 6.84375 38.6075 6.41761C38.4442 5.99148 38.2045 5.65945 37.8884 5.42152C37.5724 5.18359 37.1817 5.06463 36.7165 5.06463C36.2371 5.06463 35.8376 5.18892 35.518 5.4375C35.1984 5.68608 34.9569 6.02521 34.7936 6.4549C34.6338 6.88459 34.5539 7.36932 34.5539 7.90909C34.5539 8.45597 34.6356 8.9478 34.7989 9.38459C34.9623 9.82138 35.2037 10.1676 35.5233 10.4233C35.8465 10.6754 36.2442 10.8015 36.7165 10.8015ZM46.218 12.1651C45.4119 12.1651 44.7177 11.9929 44.1353 11.6484C43.5565 11.3004 43.109 10.8121 42.793 10.1836C42.4805 9.55149 42.3242 8.81108 42.3242 7.96236C42.3242 7.12429 42.4805 6.38565 42.793 5.74645C43.109 5.10724 43.5494 4.60831 44.114 4.24964C44.6822 3.89098 45.3462 3.71165 46.1062 3.71165C46.5678 3.71165 47.0153 3.788 47.4485 3.9407C47.8817 4.09339 48.2706 4.3331 48.6151 4.6598C48.9595 4.98651 49.2312 5.41087 49.43 5.93288C49.6289 6.45135 49.7283 7.08168 49.7283 7.82386V8.38849H43.2244V7.19531H48.1676C48.1676 6.77628 48.0824 6.40518 47.9119 6.08203C47.7415 5.75533 47.5018 5.49787 47.1928 5.30966C46.8874 5.12145 46.5288 5.02734 46.1168 5.02734C45.6694 5.02734 45.2788 5.13743 44.945 5.3576C44.6147 5.57422 44.359 5.85831 44.1779 6.20987C44.0004 6.55788 43.9116 6.93608 43.9116 7.34446V8.27663C43.9116 8.82351 44.0075 9.28871 44.1992 9.67223C44.3945 10.0558 44.6662 10.3487 45.0142 10.5511C45.3622 10.75 45.7688 10.8494 46.234 10.8494C46.5359 10.8494 46.8111 10.8068 47.0597 10.7216C47.3082 10.6328 47.5231 10.5014 47.7042 10.3274C47.8853 10.1534 48.0238 9.93857 48.1197 9.68288L49.6271 9.95455C49.5064 10.3984 49.2898 10.7873 48.9773 11.1211C48.6683 11.4513 48.2795 11.7088 47.8107 11.8935C47.3455 12.0746 46.8146 12.1651 46.218 12.1651ZM54.9419 12.1651C54.1748 12.1651 53.5054 11.9893 52.9337 11.6378C52.3619 11.2862 51.9181 10.7944 51.602 10.1623C51.286 9.53018 51.1279 8.79155 51.1279 7.94638C51.1279 7.09766 51.286 6.35547 51.602 5.71982C51.9181 5.08416 52.3619 4.59055 52.9337 4.23899C53.5054 3.88743 54.1748 3.71165 54.9419 3.71165C55.7089 3.71165 56.3783 3.88743 56.95 4.23899C57.5218 4.59055 57.9656 5.08416 58.2817 5.71982C58.5977 6.35547 58.7558 7.09766 58.7558 7.94638C58.7558 8.79155 58.5977 9.53018 58.2817 10.1623C57.9656 10.7944 57.5218 11.2862 56.95 11.6378C56.3783 11.9893 55.7089 12.1651 54.9419 12.1651ZM54.9472 10.8281C55.4443 10.8281 55.8563 10.6967 56.183 10.4339C56.5097 10.1712 56.7512 9.82138 56.9074 9.38459C57.0672 8.9478 57.1471 8.46662 57.1471 7.94105C57.1471 7.41903 57.0672 6.93963 56.9074 6.50284C56.7512 6.0625 56.5097 5.70916 56.183 5.44283C55.8563 5.17649 55.4443 5.04332 54.9472 5.04332C54.4465 5.04332 54.031 5.17649 53.7007 5.44283C53.374 5.70916 53.1308 6.0625 52.971 6.50284C52.8147 6.93963 52.7366 7.41903 52.7366 7.94105C52.7366 8.46662 52.8147 8.9478 52.971 9.38459C53.1308 9.82138 53.374 10.1712 53.7007 10.4339C54.031 10.6967 54.4465 10.8281 54.9472 10.8281ZM62.9146 12.1811C62.3961 12.1811 61.9274 12.0852 61.5083 11.8935C61.0893 11.6982 60.7573 11.4158 60.5123 11.0465C60.2708 10.6772 60.15 10.2244 60.15 9.68821C60.15 9.22656 60.2388 8.84659 60.4164 8.5483C60.5939 8.25 60.8336 8.01385 61.1355 7.83984C61.4373 7.66584 61.7747 7.53445 62.1475 7.44567C62.5204 7.35689 62.9004 7.28942 63.2875 7.24325C63.7775 7.18643 64.1752 7.14027 64.4806 7.10476C64.786 7.0657 65.008 7.00355 65.1465 6.91832C65.285 6.8331 65.3542 6.6946 65.3542 6.50284V6.46555C65.3542 6.00035 65.2228 5.63991 64.96 5.38423C64.7008 5.12855 64.3137 5.00071 63.7988 5.00071C63.2626 5.00071 62.84 5.11967 62.5311 5.3576C62.2257 5.59197 62.0144 5.85298 61.8972 6.14062L60.4004 5.79972C60.5779 5.30256 60.8372 4.90128 61.1781 4.59588C61.5225 4.28693 61.9185 4.06321 62.3659 3.92472C62.8134 3.78267 63.2839 3.71165 63.7775 3.71165C64.1042 3.71165 64.4505 3.75071 64.8162 3.82884C65.1855 3.90341 65.53 4.0419 65.8496 4.24432C66.1728 4.44673 66.4373 4.73615 66.6433 5.11257C66.8493 5.48544 66.9522 5.97017 66.9522 6.56676V12H65.3968V10.8814H65.3329C65.2299 11.0874 65.0755 11.2898 64.8695 11.4886C64.6635 11.6875 64.399 11.8526 64.0758 11.984C63.7527 12.1154 63.3656 12.1811 62.9146 12.1811ZM63.2608 10.9027C63.7012 10.9027 64.0776 10.8157 64.3901 10.6417C64.7061 10.4677 64.9458 10.2404 65.1092 9.95987C65.2761 9.67578 65.3596 9.37216 65.3596 9.04901V7.99432C65.3027 8.05114 65.1926 8.1044 65.0293 8.15412C64.8695 8.20028 64.6866 8.24112 64.4806 8.27663C64.2747 8.30859 64.074 8.33878 63.8787 8.36719C63.6834 8.39205 63.5201 8.41335 63.3887 8.43111C63.0797 8.47017 62.7974 8.53587 62.5417 8.6282C62.2896 8.72053 62.0872 8.85369 61.9345 9.0277C61.7853 9.19815 61.7108 9.42543 61.7108 9.70952C61.7108 10.1037 61.8564 10.402 62.1475 10.6044C62.4387 10.8033 62.8098 10.9027 63.2608 10.9027ZM75.2046 5.8157L73.7611 6.07138C73.7007 5.88672 73.6048 5.71094 73.4735 5.54403C73.3456 5.37713 73.1716 5.24041 72.9514 5.13388C72.7313 5.02734 72.4561 4.97408 72.1258 4.97408C71.6748 4.97408 71.2984 5.07528 70.9965 5.2777C70.6947 5.47656 70.5438 5.73402 70.5438 6.05007C70.5438 6.32351 70.645 6.54368 70.8474 6.71058C71.0498 6.87749 71.3765 7.0142 71.8275 7.12074L73.1272 7.41903C73.8801 7.59304 74.4411 7.86115 74.8105 8.22337C75.1798 8.58558 75.3644 9.05611 75.3644 9.63494C75.3644 10.125 75.2224 10.5618 74.9383 10.9453C74.6578 11.3253 74.2654 11.6236 73.7611 11.8402C73.2604 12.0568 72.6798 12.1651 72.0193 12.1651C71.1031 12.1651 70.3556 11.9698 69.7767 11.5792C69.1979 11.185 68.8428 10.6257 68.7114 9.90128L70.2508 9.6669C70.3467 10.0682 70.5438 10.3718 70.8421 10.5778C71.1404 10.7802 71.5292 10.8814 72.0086 10.8814C72.5306 10.8814 72.9479 10.7731 73.2604 10.5565C73.5729 10.3363 73.7291 10.0682 73.7291 9.75213C73.7291 9.49645 73.6333 9.28161 73.4415 9.1076C73.2533 8.93359 72.9639 8.8022 72.5732 8.71342L71.1883 8.4098C70.4248 8.2358 69.8602 7.95881 69.4944 7.57884C69.1322 7.19886 68.9511 6.71768 68.9511 6.1353C68.9511 5.65234 69.086 5.22976 69.3559 4.86754C69.6258 4.50533 69.9987 4.22301 70.4745 4.0206C70.9504 3.81463 71.4955 3.71165 72.1098 3.71165C72.9941 3.71165 73.6901 3.90341 74.1979 4.28693C74.7057 4.6669 75.0413 5.17649 75.2046 5.8157ZM78.5804 9.22479L78.5698 7.28054H78.8468L82.1067 3.81818H84.0137L80.2956 7.75994H80.0453L78.5804 9.22479ZM77.1156 12V1.09091H78.7083V12H77.1156ZM82.2825 12L79.3528 8.11151L80.4501 6.99822L84.2374 12H82.2825Z" fill="white"/>
</svg>
