<svg width="103" height="21" viewBox="0 0 103 21" fill="none" xmlns="http://www.w3.org/2000/svg">
<path d="M25.3333 9.13933C22.5286 21.6277 7.99195 21.9412 5.02708 9.02393L25.3333 9.13933Z" fill="black"/>
<ellipse cx="8.74798" cy="5.76745" rx="1.25054" ry="1.76745" fill="black"/>
<ellipse cx="21.5657" cy="5.76745" rx="1.25054" ry="1.76745" fill="black"/>
<path d="M36.299 7.81818L33.3853 16H31.2546L28.3409 7.81818H30.397L32.2773 13.896H32.3626L34.2482 7.81818H36.299ZM37.6333 16V7.81818H39.5616V16H37.6333ZM38.6028 6.65696C38.2974 6.65696 38.0346 6.55575 37.8145 6.35334C37.5943 6.14737 37.4842 5.90057 37.4842 5.61293C37.4842 5.32173 37.5943 5.07493 37.8145 4.87251C38.0346 4.66655 38.2974 4.56357 38.6028 4.56357C38.9118 4.56357 39.1745 4.66655 39.3912 4.87251C39.6113 5.07493 39.7214 5.32173 39.7214 5.61293C39.7214 5.90057 39.6113 6.14737 39.3912 6.35334C39.1745 6.55575 38.9118 6.65696 38.6028 6.65696ZM44.5807 16.1438C43.9379 16.1438 43.3627 15.9787 42.8548 15.6484C42.347 15.3182 41.9458 14.8388 41.651 14.2102C41.3563 13.5817 41.2089 12.8182 41.2089 11.9197C41.2089 11.0107 41.358 10.2436 41.6563 9.61861C41.9582 8.99006 42.3648 8.51598 42.8762 8.19638C43.3875 7.87322 43.9575 7.71165 44.586 7.71165C45.0654 7.71165 45.4596 7.79332 45.7686 7.95668C46.0775 8.11648 46.3225 8.31001 46.5036 8.53729C46.6847 8.76101 46.825 8.9723 46.9244 9.17116H47.0044V5.09091H48.9379V16H47.0416V14.7109H46.9244C46.825 14.9098 46.6812 15.1211 46.493 15.3448C46.3048 15.565 46.0562 15.7532 45.7472 15.9094C45.4383 16.0657 45.0494 16.1438 44.5807 16.1438ZM45.1187 14.5618C45.5271 14.5618 45.8751 14.4517 46.1627 14.2315C46.4504 14.0078 46.6688 13.6971 46.8179 13.2994C46.9671 12.9016 47.0416 12.4382 47.0416 11.9091C47.0416 11.38 46.9671 10.9201 46.8179 10.5295C46.6723 10.1388 46.4557 9.83523 46.1681 9.61861C45.884 9.40199 45.5342 9.29368 45.1187 9.29368C44.689 9.29368 44.3303 9.40554 44.0427 9.62926C43.7551 9.85298 43.5384 10.1619 43.3928 10.5561C43.2472 10.9503 43.1744 11.4013 43.1744 11.9091C43.1744 12.4205 43.2472 12.8768 43.3928 13.2781C43.542 13.6758 43.7604 13.9901 44.048 14.2209C44.3392 14.4482 44.6961 14.5618 45.1187 14.5618ZM54.6149 16.1598C53.7946 16.1598 53.0861 15.9893 52.4895 15.6484C51.8965 15.304 51.4402 14.8175 51.1206 14.1889C50.801 13.5568 50.6412 12.8129 50.6412 11.957C50.6412 11.1154 50.801 10.3768 51.1206 9.74112C51.4437 9.10192 51.8947 8.60476 52.4735 8.24964C53.0524 7.89098 53.7324 7.71165 54.5137 7.71165C55.0179 7.71165 55.4938 7.79332 55.9412 7.95668C56.3922 8.11648 56.79 8.36506 57.1344 8.70241C57.4824 9.03977 57.7559 9.46946 57.9547 9.99148C58.1536 10.5099 58.253 11.1278 58.253 11.8452V12.4364H51.5467V11.1367H56.4047C56.4011 10.7674 56.3212 10.4389 56.165 10.1513C56.0087 9.86009 55.7903 9.63104 55.5098 9.46413C55.2328 9.29723 54.9096 9.21378 54.5403 9.21378C54.1461 9.21378 53.7999 9.30966 53.5016 9.50142C53.2033 9.68963 52.9707 9.93821 52.8038 10.2472C52.6404 10.5526 52.557 10.8881 52.5534 11.2539V12.3885C52.5534 12.8643 52.6404 13.2727 52.8145 13.6136C52.9885 13.951 53.2317 14.2102 53.5442 14.3913C53.8567 14.5689 54.2225 14.6577 54.6415 14.6577C54.9221 14.6577 55.176 14.6186 55.4032 14.5405C55.6305 14.4588 55.8276 14.3398 55.9945 14.1836C56.1614 14.0273 56.2875 13.8338 56.3727 13.603L58.1731 13.8054C58.0595 14.2812 57.8429 14.6967 57.5233 15.0518C57.2072 15.4034 56.8024 15.6768 56.3088 15.8722C55.8152 16.0639 55.2505 16.1598 54.6149 16.1598ZM63.4532 16.1598C62.6542 16.1598 61.9617 15.984 61.3758 15.6325C60.7899 15.2809 60.3353 14.7891 60.0122 14.157C59.6926 13.5249 59.5328 12.7862 59.5328 11.9411C59.5328 11.0959 59.6926 10.3555 60.0122 9.71982C60.3353 9.08416 60.7899 8.59055 61.3758 8.23899C61.9617 7.88743 62.6542 7.71165 63.4532 7.71165C64.2522 7.71165 64.9447 7.88743 65.5306 8.23899C66.1166 8.59055 66.5693 9.08416 66.8889 9.71982C67.2121 10.3555 67.3737 11.0959 67.3737 11.9411C67.3737 12.7862 67.2121 13.5249 66.8889 14.157C66.5693 14.7891 66.1166 15.2809 65.5306 15.6325C64.9447 15.984 64.2522 16.1598 63.4532 16.1598ZM63.4639 14.6151C63.8971 14.6151 64.2593 14.4961 64.5505 14.2582C64.8417 14.0167 65.0583 13.6935 65.2004 13.2887C65.346 12.8839 65.4188 12.4329 65.4188 11.9357C65.4188 11.435 65.346 10.9822 65.2004 10.5774C65.0583 10.169 64.8417 9.84411 64.5505 9.60263C64.2593 9.36115 63.8971 9.24041 63.4639 9.24041C63.02 9.24041 62.6507 9.36115 62.3559 9.60263C62.0647 9.84411 61.8463 10.169 61.7007 10.5774C61.5587 10.9822 61.4877 11.435 61.4877 11.9357C61.4877 12.4329 61.5587 12.8839 61.7007 13.2887C61.8463 13.6935 62.0647 14.0167 62.3559 14.2582C62.6507 14.4961 63.02 14.6151 63.4639 14.6151ZM71.3647 16.1651C70.8462 16.1651 70.3793 16.0728 69.9638 15.8881C69.5518 15.6999 69.2251 15.4229 68.9837 15.0572C68.7457 14.6914 68.6268 14.2404 68.6268 13.7042C68.6268 13.2425 68.712 12.8608 68.8825 12.5589C69.0529 12.2571 69.2855 12.0156 69.5803 11.8345C69.875 11.6534 70.207 11.5167 70.5763 11.4244C70.9492 11.3285 71.3345 11.2592 71.7322 11.2166C72.2116 11.1669 72.6005 11.1225 72.8988 11.0835C73.1971 11.0408 73.4137 10.9769 73.5487 10.8917C73.6871 10.8029 73.7564 10.6662 73.7564 10.4815V10.4496C73.7564 10.0483 73.6374 9.73757 73.3995 9.5174C73.1616 9.29723 72.8189 9.18714 72.3714 9.18714C71.8991 9.18714 71.5245 9.29013 71.2475 9.49609C70.9741 9.70206 70.7894 9.94531 70.6935 10.2259L68.8931 9.97017C69.0352 9.47301 69.2695 9.05753 69.5962 8.72372C69.9229 8.38636 70.3224 8.13423 70.7947 7.96733C71.267 7.79688 71.7891 7.71165 72.3608 7.71165C72.755 7.71165 73.1474 7.75781 73.538 7.85014C73.9286 7.94247 74.2855 8.09517 74.6087 8.30824C74.9318 8.51776 75.1911 8.80362 75.3864 9.16584C75.5852 9.52805 75.6847 9.98082 75.6847 10.5241V16H73.831V14.8761H73.767C73.6499 15.1033 73.4847 15.3164 73.2717 15.5153C73.0621 15.7106 72.7976 15.8686 72.478 15.9893C72.1619 16.1065 71.7908 16.1651 71.3647 16.1651ZM71.8654 14.7482C72.2525 14.7482 72.5881 14.6719 72.8722 14.5192C73.1563 14.3629 73.3746 14.157 73.5273 13.9013C73.6836 13.6456 73.7617 13.3668 73.7617 13.065V12.1009C73.7013 12.1506 73.5984 12.1967 73.4528 12.2393C73.3107 12.282 73.1509 12.3192 72.9734 12.3512C72.7958 12.3832 72.62 12.4116 72.446 12.4364C72.272 12.4613 72.1211 12.4826 71.9933 12.5004C71.7056 12.5394 71.4482 12.6033 71.2209 12.6921C70.9936 12.7809 70.8143 12.9052 70.6829 13.065C70.5515 13.2212 70.4858 13.4237 70.4858 13.6722C70.4858 14.0273 70.6154 14.2955 70.8746 14.4766C71.1339 14.6577 71.4641 14.7482 71.8654 14.7482ZM84.0902 9.98082L82.3324 10.1726C82.2827 9.99503 82.1957 9.82812 82.0714 9.67188C81.9506 9.51562 81.7873 9.38956 81.5813 9.29368C81.3754 9.1978 81.1232 9.14986 80.8249 9.14986C80.4237 9.14986 80.0863 9.23686 79.8129 9.41087C79.543 9.58487 79.4098 9.81037 79.4134 10.0874C79.4098 10.3253 79.4968 10.5188 79.6744 10.668C79.8555 10.8171 80.1538 10.9396 80.5692 11.0355L81.9648 11.3338C82.739 11.5007 83.3143 11.7653 83.6907 12.1275C84.0707 12.4897 84.2624 12.9638 84.266 13.5497C84.2624 14.0646 84.1115 14.5192 83.8132 14.9134C83.5185 15.304 83.1083 15.6094 82.5827 15.8295C82.0572 16.0497 81.4535 16.1598 80.7717 16.1598C79.7702 16.1598 78.9641 15.9503 78.3533 15.5312C77.7425 15.1087 77.3786 14.521 77.2614 13.7681L79.1417 13.587C79.2269 13.9563 79.408 14.2351 79.685 14.4233C79.962 14.6115 80.3224 14.7056 80.7663 14.7056C81.2244 14.7056 81.592 14.6115 81.869 14.4233C82.1495 14.2351 82.2898 14.0025 82.2898 13.7255C82.2898 13.4911 82.1992 13.2976 82.0181 13.1449C81.8406 12.9922 81.5636 12.875 81.1871 12.7933L79.7915 12.5004C79.0067 12.337 78.4261 12.0618 78.0497 11.6747C77.6733 11.2841 77.4869 10.7905 77.4904 10.1939C77.4869 9.68963 77.6236 9.25284 77.9006 8.88352C78.1811 8.51065 78.57 8.22301 79.0671 8.0206C79.5678 7.81463 80.1449 7.71165 80.7983 7.71165C81.7571 7.71165 82.5117 7.91584 83.0621 8.32422C83.6161 8.7326 83.9588 9.2848 84.0902 9.98082ZM87.6138 13.4325L87.6085 11.1048H87.9174L90.8578 7.81818H93.111L89.4941 11.8452H89.0946L87.6138 13.4325ZM85.856 16V5.09091H87.7843V16H85.856ZM90.9909 16L88.3276 12.2766L89.6273 10.9183L93.2974 16H90.9909Z" fill="black"/>
</svg>
